<?xml version="1.0" encoding="utf-8"?><svg xml:space="preserve" viewBox="0 0 100 100" y="0" x="0" xmlns="http://www.w3.org/2000/svg" id="Layer_1" version="1.1" width="229px" height="229px" xmlns:xlink="http://www.w3.org/1999/xlink" style="width:100%;height:100%;background-size:initial;background-repeat-y:initial;background-repeat-x:initial;background-position-y:initial;background-position-x:initial;background-origin:initial;background-color:initial;background-clip:initial;background-attachment:initial;animation-play-state:paused" ><g class="ldl-scale" style="transform-origin:50% 50%;transform:rotate(0deg) scale(1, 1);animation-play-state:paused" ><path fill="#333" d="M81.293 13.31c-4.348-3.567-10.787-2.931-14.354 1.416L18.762 73.448a1.805 1.805 0 0 0 .251 2.541l12.979 10.648c.771.632 1.908.52 2.541-.251l48.176-58.722c3.567-4.347 2.932-10.787-1.416-14.354zm-2.29 2.791a6.596 6.596 0 0 1 .915 9.273c-2.304 2.809-6.464 3.219-9.273.915s-3.219-6.464-.914-9.273 6.463-3.219 9.272-.915zM60.33 28.473l1.658 16.806-16.806 1.658L60.33 28.473zM42.863 50.794l17.626-1.739-15.888 19.366-1.738-17.627zm-1.672 19.835l-16.806 1.658 15.149-18.465 1.657 16.807zm22.378-46.103l1.232-1.501a10.15 10.15 0 0 0 3.554 6.056 10.15 10.15 0 0 0 6.633 2.303l-9.589 11.689-1.83-18.547zM24.592 75.895l15.1-1.489-6.805 8.294-8.295-6.805z" style="fill:rgb(51, 51, 51);animation-play-state:paused" ></path>
<circle fill="#f47e5f" r="6.706" cy="21.233" cx="74.76" style="fill:rgb(244, 126, 95);animation-play-state:paused" ></circle>
<path stroke-miterlimit="10" stroke-width="3.5" stroke="#333" fill="#f7b26a" d="M50.361 89H19.857a4.876 4.876 0 0 1-4.876-4.876V69.407a4.876 4.876 0 0 1 4.876-4.876h22.069a6.453 6.453 0 0 1 5.782 3.588l6.93 13.989C56.21 85.28 53.901 89 50.361 89z" style="stroke:rgb(51, 51, 51);fill:rgb(247, 178, 106);animation-play-state:paused" ></path>
<circle stroke-miterlimit="10" stroke-width="3.5" stroke="#333" fill="#f47e5f" r="6.706" cy="76.894" cx="31.016" style="stroke:rgb(51, 51, 51);fill:rgb(244, 126, 95);animation-play-state:paused" ></circle>
<path stroke-width="3.5" stroke="#333" fill="none" stroke-miterlimit="10" d="M68.344 79.231a6.416 6.416 0 1 0 12.832 0c0-4.823-5.108-5.66-6.436-9.69-.629-1.908-.302-3.81-.302-5.752" style="stroke:rgb(51, 51, 51);animation-play-state:paused" ></path>
<path d="M74.76 20.427V65.82" stroke-miterlimit="10" stroke-width="3.5" stroke-linecap="round" stroke="#333" fill="none" style="stroke:rgb(51, 51, 51);animation-play-state:paused" ></path>
<path stroke-miterlimit="10" stroke-width="3.5" stroke="#333" fill="#f7b26a" d="M78.385 67.109h-7.251a2.564 2.564 0 0 1-2.564-2.564v-7.251a2.564 2.564 0 0 1 2.564-2.564h7.251a2.564 2.564 0 0 1 2.564 2.564v7.251a2.563 2.563 0 0 1-2.564 2.564z" style="stroke:rgb(51, 51, 51);fill:rgb(247, 178, 106);animation-play-state:paused" ></path>
<metadata xmlns:d="https://loading.io/stock/" style="animation-play-state:paused" ><d:name style="animation-play-state:paused" >infrastructure</d:name>


<d:tags style="animation-play-state:paused" >infrastructure,construction,building,fundamental,foundation,crane</d:tags>


<d:license style="animation-play-state:paused" >by</d:license>


<d:slug style="animation-play-state:paused" >lrpbki</d:slug></metadata></g><!-- generated by https://loading.io/ --></svg>